<svg width="1767" height="33" viewBox="0 0 1767 33" fill="none" xmlns="http://www.w3.org/2000/svg">
<g clip-path="url(#clip0)" filter="url(#filter0_d)">
<path d="M996.784 12.466C997.888 13.102 998.44 14.062 998.44 15.346C998.44 16.414 998.062 17.29 997.306 17.974C996.55 18.658 995.62 19 994.516 19H989.17V6.4H994.138C995.218 6.4 996.124 6.736 996.856 7.408C997.6 8.068 997.972 8.914 997.972 9.946C997.972 10.99 997.576 11.83 996.784 12.466ZM994.138 8.722H991.654V11.494H994.138C994.522 11.494 994.84 11.362 995.092 11.098C995.356 10.834 995.488 10.504 995.488 10.108C995.488 9.712 995.362 9.382 995.11 9.118C994.858 8.854 994.534 8.722 994.138 8.722ZM994.516 16.678C994.936 16.678 995.284 16.54 995.56 16.264C995.836 15.976 995.974 15.616 995.974 15.184C995.974 14.764 995.836 14.416 995.56 14.14C995.284 13.852 994.936 13.708 994.516 13.708H991.654V16.678H994.516ZM999.96 19V5.86H1002.28V19H999.96ZM1012.08 17.884C1011.15 18.796 1010.02 19.252 1008.69 19.252C1007.36 19.252 1006.23 18.796 1005.31 17.884C1004.4 16.96 1003.94 15.832 1003.94 14.5C1003.94 13.168 1004.4 12.046 1005.31 11.134C1006.23 10.21 1007.36 9.748 1008.69 9.748C1010.02 9.748 1011.15 10.21 1012.08 11.134C1013 12.046 1013.46 13.168 1013.46 14.5C1013.46 15.832 1013 16.96 1012.08 17.884ZM1006.95 16.282C1007.41 16.75 1008 16.984 1008.69 16.984C1009.39 16.984 1009.97 16.75 1010.44 16.282C1010.91 15.814 1011.14 15.22 1011.14 14.5C1011.14 13.78 1010.91 13.186 1010.44 12.718C1009.97 12.25 1009.39 12.016 1008.69 12.016C1008 12.016 1007.41 12.25 1006.95 12.718C1006.49 13.186 1006.26 13.78 1006.26 14.5C1006.26 15.22 1006.49 15.814 1006.95 16.282ZM1021.99 10H1024.26V18.568C1024.26 19.96 1023.8 21.022 1022.87 21.754C1021.96 22.486 1020.86 22.852 1019.56 22.852C1018.59 22.852 1017.73 22.666 1016.99 22.294C1016.25 21.922 1015.69 21.376 1015.29 20.656L1017.27 19.522C1017.73 20.362 1018.52 20.782 1019.63 20.782C1020.36 20.782 1020.94 20.59 1021.36 20.206C1021.78 19.822 1021.99 19.276 1021.99 18.568V17.596C1021.31 18.508 1020.35 18.964 1019.11 18.964C1017.84 18.964 1016.77 18.52 1015.91 17.632C1015.05 16.732 1014.63 15.64 1014.63 14.356C1014.63 13.084 1015.06 11.998 1015.92 11.098C1016.79 10.198 1017.85 9.748 1019.11 9.748C1020.35 9.748 1021.31 10.204 1021.99 11.116V10ZM1017.65 16.138C1018.13 16.594 1018.74 16.822 1019.47 16.822C1020.2 16.822 1020.8 16.594 1021.27 16.138C1021.75 15.67 1021.99 15.076 1021.99 14.356C1021.99 13.648 1021.75 13.066 1021.27 12.61C1020.8 12.142 1020.2 11.908 1019.47 11.908C1018.74 11.908 1018.13 12.142 1017.65 12.61C1017.18 13.066 1016.95 13.648 1016.95 14.356C1016.95 15.076 1017.18 15.67 1017.65 16.138Z" fill="white"/>
<path d="M882.27 19L881.514 16.732H876.492L875.736 19H873.054L877.464 6.4H880.542L884.97 19H882.27ZM877.284 14.41H880.74L879.012 9.262L877.284 14.41ZM891.323 9.748C892.535 9.748 893.567 10.21 894.419 11.134C895.283 12.046 895.715 13.168 895.715 14.5C895.715 15.832 895.283 16.96 894.419 17.884C893.567 18.796 892.535 19.252 891.323 19.252C890.063 19.252 889.091 18.814 888.407 17.938V19H886.085V6.4H888.407V11.062C889.091 10.186 890.063 9.748 891.323 9.748ZM889.109 16.336C889.577 16.804 890.171 17.038 890.891 17.038C891.611 17.038 892.205 16.804 892.673 16.336C893.153 15.856 893.393 15.244 893.393 14.5C893.393 13.756 893.153 13.15 892.673 12.682C892.205 12.202 891.611 11.962 890.891 11.962C890.171 11.962 889.577 12.202 889.109 12.682C888.641 13.15 888.407 13.756 888.407 14.5C888.407 15.244 888.641 15.856 889.109 16.336ZM905.021 17.884C904.097 18.796 902.969 19.252 901.637 19.252C900.305 19.252 899.177 18.796 898.253 17.884C897.341 16.96 896.885 15.832 896.885 14.5C896.885 13.168 897.341 12.046 898.253 11.134C899.177 10.21 900.305 9.748 901.637 9.748C902.969 9.748 904.097 10.21 905.021 11.134C905.945 12.046 906.407 13.168 906.407 14.5C906.407 15.832 905.945 16.96 905.021 17.884ZM899.891 16.282C900.359 16.75 900.941 16.984 901.637 16.984C902.333 16.984 902.915 16.75 903.383 16.282C903.851 15.814 904.085 15.22 904.085 14.5C904.085 13.78 903.851 13.186 903.383 12.718C902.915 12.25 902.333 12.016 901.637 12.016C900.941 12.016 900.359 12.25 899.891 12.718C899.435 13.186 899.207 13.78 899.207 14.5C899.207 15.22 899.435 15.814 899.891 16.282ZM913.981 10H916.303V19H913.981V17.992C913.417 18.832 912.523 19.252 911.299 19.252C910.315 19.252 909.499 18.922 908.851 18.262C908.215 17.602 907.897 16.69 907.897 15.526V10H910.219V15.238C910.219 15.838 910.381 16.3 910.705 16.624C911.029 16.936 911.461 17.092 912.001 17.092C912.601 17.092 913.081 16.906 913.441 16.534C913.801 16.162 913.981 15.604 913.981 14.86V10ZM923.577 12.232H921.543V15.976C921.543 16.288 921.621 16.516 921.777 16.66C921.933 16.804 922.161 16.888 922.461 16.912C922.761 16.924 923.133 16.918 923.577 16.894V19C921.981 19.18 920.853 19.03 920.193 18.55C919.545 18.07 919.221 17.212 919.221 15.976V12.232H917.655V10H919.221V8.182L921.543 7.48V10H923.577V12.232ZM935.795 10H938.117V19H935.795V17.992C935.231 18.832 934.337 19.252 933.113 19.252C932.129 19.252 931.313 18.922 930.665 18.262C930.029 17.602 929.711 16.69 929.711 15.526V10H932.033V15.238C932.033 15.838 932.195 16.3 932.519 16.624C932.843 16.936 933.275 17.092 933.815 17.092C934.415 17.092 934.895 16.906 935.255 16.534C935.615 16.162 935.795 15.604 935.795 14.86V10ZM942.315 12.556C942.315 12.796 942.471 12.994 942.783 13.15C943.107 13.294 943.497 13.426 943.953 13.546C944.409 13.654 944.865 13.798 945.321 13.978C945.777 14.146 946.161 14.434 946.473 14.842C946.797 15.25 946.959 15.76 946.959 16.372C946.959 17.296 946.611 18.01 945.915 18.514C945.231 19.006 944.373 19.252 943.341 19.252C941.493 19.252 940.233 18.538 939.561 17.11L941.577 15.976C941.841 16.756 942.429 17.146 943.341 17.146C944.169 17.146 944.583 16.888 944.583 16.372C944.583 16.132 944.421 15.94 944.097 15.796C943.785 15.64 943.401 15.502 942.945 15.382C942.489 15.262 942.033 15.112 941.577 14.932C941.121 14.752 940.731 14.47 940.407 14.086C940.095 13.69 939.939 13.198 939.939 12.61C939.939 11.722 940.263 11.026 940.911 10.522C941.571 10.006 942.387 9.748 943.359 9.748C944.091 9.748 944.757 9.916 945.357 10.252C945.957 10.576 946.431 11.044 946.779 11.656L944.799 12.736C944.511 12.124 944.031 11.818 943.359 11.818C943.059 11.818 942.807 11.884 942.603 12.016C942.411 12.148 942.315 12.328 942.315 12.556Z" fill="white"/>
<g filter="url(#filter1_d)">
<path d="M746.654 16.624H751.964V19H744.17V6.4H751.874V8.776H746.654V11.458H751.424V13.798H746.654V16.624ZM760.236 10H762.558V22.6H760.236V17.938C759.552 18.814 758.58 19.252 757.32 19.252C756.108 19.252 755.07 18.796 754.206 17.884C753.354 16.96 752.928 15.832 752.928 14.5C752.928 13.168 753.354 12.046 754.206 11.134C755.07 10.21 756.108 9.748 757.32 9.748C758.58 9.748 759.552 10.186 760.236 11.062V10ZM755.952 16.336C756.432 16.804 757.032 17.038 757.752 17.038C758.472 17.038 759.066 16.804 759.534 16.336C760.002 15.856 760.236 15.244 760.236 14.5C760.236 13.756 760.002 13.15 759.534 12.682C759.066 12.202 758.472 11.962 757.752 11.962C757.032 11.962 756.432 12.202 755.952 12.682C755.484 13.15 755.25 13.756 755.25 14.5C755.25 15.244 755.484 15.856 755.952 16.336ZM770.621 10H772.943V19H770.621V17.992C770.057 18.832 769.163 19.252 767.939 19.252C766.955 19.252 766.139 18.922 765.491 18.262C764.855 17.602 764.537 16.69 764.537 15.526V10H766.859V15.238C766.859 15.838 767.021 16.3 767.345 16.624C767.669 16.936 768.101 17.092 768.641 17.092C769.241 17.092 769.721 16.906 770.081 16.534C770.441 16.162 770.621 15.604 770.621 14.86V10ZM776.222 8.92C775.838 8.92 775.502 8.782 775.214 8.506C774.938 8.218 774.8 7.882 774.8 7.498C774.8 7.114 774.938 6.778 775.214 6.49C775.502 6.202 775.838 6.058 776.222 6.058C776.618 6.058 776.954 6.202 777.23 6.49C777.518 6.778 777.662 7.114 777.662 7.498C777.662 7.882 777.518 8.218 777.23 8.506C776.954 8.782 776.618 8.92 776.222 8.92ZM775.07 19V10H777.392V19H775.07ZM784.755 9.748C785.967 9.748 786.999 10.21 787.851 11.134C788.715 12.046 789.147 13.168 789.147 14.5C789.147 15.832 788.715 16.96 787.851 17.884C786.999 18.796 785.967 19.252 784.755 19.252C783.495 19.252 782.523 18.814 781.839 17.938V22.6H779.517V10H781.839V11.062C782.523 10.186 783.495 9.748 784.755 9.748ZM782.541 16.336C783.009 16.804 783.603 17.038 784.323 17.038C785.043 17.038 785.637 16.804 786.105 16.336C786.585 15.856 786.825 15.244 786.825 14.5C786.825 13.756 786.585 13.15 786.105 12.682C785.637 12.202 785.043 11.962 784.323 11.962C783.603 11.962 783.009 12.202 782.541 12.682C782.073 13.15 781.839 13.756 781.839 14.5C781.839 15.244 782.073 15.856 782.541 16.336ZM800.739 9.748C801.771 9.748 802.593 10.084 803.205 10.756C803.829 11.428 804.141 12.328 804.141 13.456V19H801.819V13.618C801.819 13.078 801.687 12.658 801.423 12.358C801.159 12.058 800.787 11.908 800.307 11.908C799.779 11.908 799.365 12.082 799.065 12.43C798.777 12.778 798.633 13.282 798.633 13.942V19H796.311V13.618C796.311 13.078 796.179 12.658 795.915 12.358C795.651 12.058 795.279 11.908 794.799 11.908C794.283 11.908 793.869 12.082 793.557 12.43C793.257 12.778 793.107 13.282 793.107 13.942V19H790.785V10H793.107V10.954C793.647 10.15 794.481 9.748 795.609 9.748C796.713 9.748 797.529 10.18 798.057 11.044C798.657 10.18 799.551 9.748 800.739 9.748ZM808.075 15.454C808.387 16.582 809.233 17.146 810.613 17.146C811.501 17.146 812.173 16.846 812.629 16.246L814.501 17.326C813.613 18.61 812.305 19.252 810.577 19.252C809.089 19.252 807.895 18.802 806.995 17.902C806.095 17.002 805.645 15.868 805.645 14.5C805.645 13.144 806.089 12.016 806.977 11.116C807.865 10.204 809.005 9.748 810.397 9.748C811.717 9.748 812.803 10.204 813.655 11.116C814.519 12.028 814.951 13.156 814.951 14.5C814.951 14.8 814.921 15.118 814.861 15.454H808.075ZM808.039 13.654H812.629C812.497 13.042 812.221 12.586 811.801 12.286C811.393 11.986 810.925 11.836 810.397 11.836C809.773 11.836 809.257 11.998 808.849 12.322C808.441 12.634 808.171 13.078 808.039 13.654ZM821.576 9.748C822.56 9.748 823.37 10.078 824.006 10.738C824.654 11.398 824.978 12.31 824.978 13.474V19H822.656V13.762C822.656 13.162 822.494 12.706 822.17 12.394C821.846 12.07 821.414 11.908 820.874 11.908C820.274 11.908 819.794 12.094 819.434 12.466C819.074 12.838 818.894 13.396 818.894 14.14V19H816.572V10H818.894V11.008C819.458 10.168 820.352 9.748 821.576 9.748ZM832.108 12.232H830.074V15.976C830.074 16.288 830.152 16.516 830.308 16.66C830.464 16.804 830.692 16.888 830.992 16.912C831.292 16.924 831.664 16.918 832.108 16.894V19C830.512 19.18 829.384 19.03 828.724 18.55C828.076 18.07 827.752 17.212 827.752 15.976V12.232H826.186V10H827.752V8.182L830.074 7.48V10H832.108V12.232Z" fill="white"/>
</g>
<path d="M1706.76 19L1706.04 16.858H1701.3L1700.58 19H1698.05L1702.22 7.1H1705.12L1709.31 19H1706.76ZM1702.05 14.665H1705.31L1703.68 9.803L1702.05 14.665ZM1714.17 19.238C1712.89 19.238 1711.82 18.8073 1710.96 17.946C1710.11 17.0847 1709.68 16.0193 1709.68 14.75C1709.68 13.4807 1710.11 12.4153 1710.96 11.554C1711.82 10.6927 1712.89 10.262 1714.17 10.262C1715 10.262 1715.75 10.4603 1716.43 10.857C1717.11 11.2537 1717.63 11.7863 1717.98 12.455L1716.09 13.56C1715.92 13.2087 1715.66 12.931 1715.31 12.727C1714.97 12.523 1714.59 12.421 1714.16 12.421C1713.5 12.421 1712.95 12.642 1712.52 13.084C1712.09 13.5147 1711.88 14.07 1711.88 14.75C1711.88 15.4187 1712.09 15.974 1712.52 16.416C1712.95 16.8467 1713.5 17.062 1714.16 17.062C1714.6 17.062 1714.99 16.9657 1715.33 16.773C1715.68 16.569 1715.94 16.2913 1716.11 15.94L1718.01 17.028C1717.64 17.6967 1717.11 18.235 1716.43 18.643C1715.75 19.0397 1715 19.238 1714.17 19.238ZM1723.09 19.238C1721.81 19.238 1720.74 18.8073 1719.87 17.946C1719.02 17.0847 1718.6 16.0193 1718.6 14.75C1718.6 13.4807 1719.02 12.4153 1719.87 11.554C1720.74 10.6927 1721.81 10.262 1723.09 10.262C1723.91 10.262 1724.67 10.4603 1725.35 10.857C1726.03 11.2537 1726.54 11.7863 1726.9 12.455L1725.01 13.56C1724.84 13.2087 1724.58 12.931 1724.23 12.727C1723.89 12.523 1723.5 12.421 1723.07 12.421C1722.41 12.421 1721.87 12.642 1721.44 13.084C1721.01 13.5147 1720.79 14.07 1720.79 14.75C1720.79 15.4187 1721.01 15.974 1721.44 16.416C1721.87 16.8467 1722.41 17.062 1723.07 17.062C1723.51 17.062 1723.9 16.9657 1724.24 16.773C1724.59 16.569 1724.86 16.2913 1725.03 15.94L1726.93 17.028C1726.56 17.6967 1726.03 18.235 1725.35 18.643C1724.67 19.0397 1723.91 19.238 1723.09 19.238ZM1735.2 17.946C1734.33 18.8073 1733.26 19.238 1732 19.238C1730.74 19.238 1729.68 18.8073 1728.81 17.946C1727.94 17.0733 1727.51 16.008 1727.51 14.75C1727.51 13.492 1727.94 12.4323 1728.81 11.571C1729.68 10.6983 1730.74 10.262 1732 10.262C1733.26 10.262 1734.33 10.6983 1735.2 11.571C1736.07 12.4323 1736.51 13.492 1736.51 14.75C1736.51 16.008 1736.07 17.0733 1735.2 17.946ZM1730.35 16.433C1730.8 16.875 1731.34 17.096 1732 17.096C1732.66 17.096 1733.21 16.875 1733.65 16.433C1734.09 15.991 1734.31 15.43 1734.31 14.75C1734.31 14.07 1734.09 13.509 1733.65 13.067C1733.21 12.625 1732.66 12.404 1732 12.404C1731.34 12.404 1730.8 12.625 1730.35 13.067C1729.92 13.509 1729.71 14.07 1729.71 14.75C1729.71 15.43 1729.92 15.991 1730.35 16.433ZM1743.66 10.5H1745.85V19H1743.66V18.048C1743.13 18.8413 1742.28 19.238 1741.13 19.238C1740.2 19.238 1739.43 18.9263 1738.81 18.303C1738.21 17.6797 1737.91 16.8183 1737.91 15.719V10.5H1740.11V15.447C1740.11 16.0137 1740.26 16.45 1740.57 16.756C1740.87 17.0507 1741.28 17.198 1741.79 17.198C1742.36 17.198 1742.81 17.0223 1743.15 16.671C1743.49 16.3197 1743.66 15.7927 1743.66 15.09V10.5ZM1752.59 10.262C1753.52 10.262 1754.28 10.5737 1754.88 11.197C1755.49 11.8203 1755.8 12.6817 1755.8 13.781V19H1753.61V14.053C1753.61 13.4863 1753.45 13.0557 1753.15 12.761C1752.84 12.455 1752.43 12.302 1751.92 12.302C1751.36 12.302 1750.9 12.4777 1750.56 12.829C1750.22 13.1803 1750.05 13.7073 1750.05 14.41V19H1747.86V10.5H1750.05V11.452C1750.59 10.6587 1751.43 10.262 1752.59 10.262ZM1762.53 12.608H1760.61V16.144C1760.61 16.4387 1760.69 16.654 1760.83 16.79C1760.98 16.926 1761.2 17.0053 1761.48 17.028C1761.76 17.0393 1762.12 17.0337 1762.53 17.011V19C1761.03 19.17 1759.96 19.0283 1759.34 18.575C1758.73 18.1217 1758.42 17.3113 1758.42 16.144V12.608H1756.94V10.5H1758.42V8.783L1760.61 8.12V10.5H1762.53V12.608Z" fill="white"/>
<path fill-rule="evenodd" clip-rule="evenodd" d="M1678 3C1672.48 3 1668 7.48 1668 13C1668 18.52 1672.48 23 1678 23C1683.52 23 1688 18.52 1688 13C1688 7.48 1683.52 3 1678 3ZM1673.07 19.28C1673.5 18.38 1676.12 17.5 1678 17.5C1679.88 17.5 1682.51 18.38 1682.93 19.28C1681.57 20.36 1679.86 21 1678 21C1676.14 21 1674.43 20.36 1673.07 19.28ZM1684.36 17.83C1682.93 16.09 1679.46 15.5 1678 15.5C1676.54 15.5 1673.07 16.09 1671.64 17.83C1670.62 16.49 1670 14.82 1670 13C1670 8.59 1673.59 5 1678 5C1682.41 5 1686 8.59 1686 13C1686 14.82 1685.38 16.49 1684.36 17.83ZM1678 7C1676.06 7 1674.5 8.56 1674.5 10.5C1674.5 12.44 1676.06 14 1678 14C1679.94 14 1681.5 12.44 1681.5 10.5C1681.5 8.56 1679.94 7 1678 7ZM1678 12C1677.17 12 1676.5 11.33 1676.5 10.5C1676.5 9.67 1677.17 9 1678 9C1678.83 9 1679.5 9.67 1679.5 10.5C1679.5 11.33 1678.83 12 1678 12Z" fill="white"/>
<mask id="mask0" style="mask-type:alpha" maskUnits="userSpaceOnUse" x="1668" y="3" width="20" height="20">
<path fill-rule="evenodd" clip-rule="evenodd" d="M1678 3C1672.48 3 1668 7.48 1668 13C1668 18.52 1672.48 23 1678 23C1683.52 23 1688 18.52 1688 13C1688 7.48 1683.52 3 1678 3ZM1673.07 19.28C1673.5 18.38 1676.12 17.5 1678 17.5C1679.88 17.5 1682.51 18.38 1682.93 19.28C1681.57 20.36 1679.86 21 1678 21C1676.14 21 1674.43 20.36 1673.07 19.28ZM1684.36 17.83C1682.93 16.09 1679.46 15.5 1678 15.5C1676.54 15.5 1673.07 16.09 1671.64 17.83C1670.62 16.49 1670 14.82 1670 13C1670 8.59 1673.59 5 1678 5C1682.41 5 1686 8.59 1686 13C1686 14.82 1685.38 16.49 1684.36 17.83ZM1678 7C1676.06 7 1674.5 8.56 1674.5 10.5C1674.5 12.44 1676.06 14 1678 14C1679.94 14 1681.5 12.44 1681.5 10.5C1681.5 8.56 1679.94 7 1678 7ZM1678 12C1677.17 12 1676.5 11.33 1676.5 10.5C1676.5 9.67 1677.17 9 1678 9C1678.83 9 1679.5 9.67 1679.5 10.5C1679.5 11.33 1678.83 12 1678 12Z" fill="white"/>
</mask>
<g mask="url(#mask0)">
</g>
<g clip-path="url(#clip1)">
<path d="M4.96 23H13.856V22.552C10.656 22.136 9.696 20.792 9.696 17.56V2.872H9.888L18.208 23.032H19.36L26.816 2.872H26.976V20.728C26.976 22.008 26.176 22.456 23.904 22.552V23H34.944V22.552C32.256 22.456 31.616 21.944 31.616 20.728V2.968C31.616 1.752 32.256 1.208 34.944 1.112V0.695999H26.784L20.736 17.144H20.576L13.984 0.695999H4.96V1.112C7.712 1.176 8.896 2.648 8.896 4.568V17.56C8.896 20.792 7.968 22.168 4.96 22.552V23Z" fill="white"/>
<path d="M56.128 23.352H57.664V6.104C57.664 2.936 58.528 1.56 61.536 1.112V0.695999H52.448V1.112C55.68 1.496 56.864 2.936 56.864 6.104V16.728H56.832L44.512 0.695999H36.96V1.112C39.712 1.24 40.896 2.872 40.896 4.824V17.56C40.896 20.792 39.968 22.168 36.96 22.552V23H45.984V22.552C42.72 22.2 41.696 20.792 41.696 17.56V4.728H41.728L56.128 23.352Z" fill="white"/>
<path d="M67.6 23H79.696V22.552C76.848 22.488 75.984 21.944 75.984 20.728V1.272H76.752C79.216 1.272 81.136 3.736 83.376 8.088L83.856 8.024L83.696 0.695999H63.568L63.376 8.024L63.856 8.088C66.128 3.64 68.08 1.272 70.512 1.272H71.312V20.728C71.312 21.944 70.416 22.488 67.6 22.552V23Z" fill="white"/>
<path d="M106.128 23.352H107.664V6.104C107.664 2.936 108.528 1.56 111.536 1.112V0.695999H102.448V1.112C105.68 1.496 106.864 2.936 106.864 6.104V16.728H106.832L94.512 0.695999H86.96V1.112C89.712 1.24 90.896 2.872 90.896 4.824V17.56C90.896 20.792 89.968 22.168 86.96 22.552V23H95.984V22.552C92.72 22.2 91.696 20.792 91.696 17.56V4.728H91.728L106.128 23.352Z" fill="white"/>
</g>
</g>
<defs>
<filter id="filter0_d" x="0" y="0" width="1768" height="33" filterUnits="userSpaceOnUse" color-interpolation-filters="sRGB">
<feFlood flood-opacity="0" result="BackgroundImageFix"/>
<feColorMatrix in="SourceAlpha" type="matrix" values="0 0 0 0 0 0 0 0 0 0 0 0 0 0 0 0 0 0 127 0" result="hardAlpha"/>
<feOffset dy="4"/>
<feGaussianBlur stdDeviation="2"/>
<feComposite in2="hardAlpha" operator="out"/>
<feColorMatrix type="matrix" values="0 0 0 0 0 0 0 0 0 0 0 0 0 0 0 0 0 0 0.25 0"/>
<feBlend mode="normal" in2="BackgroundImageFix" result="effect1_dropShadow"/>
<feBlend mode="normal" in="SourceGraphic" in2="effect1_dropShadow" result="shape"/>
</filter>
<filter id="filter1_d" x="740.17" y="6.05801" width="95.9384" height="24.542" filterUnits="userSpaceOnUse" color-interpolation-filters="sRGB">
<feFlood flood-opacity="0" result="BackgroundImageFix"/>
<feColorMatrix in="SourceAlpha" type="matrix" values="0 0 0 0 0 0 0 0 0 0 0 0 0 0 0 0 0 0 127 0" result="hardAlpha"/>
<feOffset dy="4"/>
<feGaussianBlur stdDeviation="2"/>
<feComposite in2="hardAlpha" operator="out"/>
<feColorMatrix type="matrix" values="0 0 0 0 0 0 0 0 0 0 0 0 0 0 0 0 0 0 0.25 0"/>
<feBlend mode="normal" in2="BackgroundImageFix" result="effect1_dropShadow"/>
<feBlend mode="normal" in="SourceGraphic" in2="effect1_dropShadow" result="shape"/>
</filter>
<clipPath id="clip0">
<rect width="1760" height="25" fill="white" transform="translate(4)"/>
</clipPath>
<clipPath id="clip1">
<rect width="108" height="24" fill="white" transform="translate(4)"/>
</clipPath>
</defs>
</svg>
